<svg width="29" height="28" viewBox="0 0 29 28" fill="none" xmlns="http://www.w3.org/2000/svg">
<g id="&#231;&#167;&#175;&#229;&#136;&#134;1">
<g id="Vector">
<path d="M16.8665 22.9439C15.6678 24.3665 13.4767 24.3665 12.278 22.9439L2.95605 11.8799C2.21222 10.9971 2.04094 9.76577 2.51557 8.71345L4.59637 4.10005C5.08136 3.02477 6.15148 2.3335 7.33108 2.3335H21.8134C22.993 2.3335 24.0632 3.02477 24.5482 4.10005L26.629 8.71345C27.1036 9.76577 26.9323 10.9971 26.1885 11.8799L16.8665 22.9439Z" fill="#FF8A01"/>
<path d="M16.8665 22.9439C15.6678 24.3665 13.4767 24.3665 12.278 22.9439L2.95605 11.8799C2.21222 10.9971 2.04094 9.76577 2.51557 8.71345L4.59637 4.10005C5.08136 3.02477 6.15148 2.3335 7.33108 2.3335H21.8134C22.993 2.3335 24.0632 3.02477 24.5482 4.10005L26.629 8.71345C27.1036 9.76577 26.9323 10.9971 26.1885 11.8799L16.8665 22.9439Z" fill="url(#paint0_linear_455_26591)"/>
</g>
<path id="Vector_2" d="M18.0723 10.5L15.2794 13.2929C14.8888 13.6834 14.2557 13.6834 13.8652 13.2929L11.0723 10.5" stroke="white" stroke-width="2" stroke-linecap="round" stroke-linejoin="round"/>
</g>
<defs>
<linearGradient id="paint0_linear_455_26591" x1="14.5723" y1="2.3335" x2="14.5723" y2="25.6668" gradientUnits="userSpaceOnUse">
<stop stop-color="#FF9900"/>
<stop offset="1" stop-color="#FFBD71"/>
</linearGradient>
</defs>
</svg>
